<?xml version="1.0" encoding="UTF-8" standalone="no"?>
<!-- Created with Inkscape (http://www.inkscape.org/) -->

<svg
   xmlns:dc="http://purl.org/dc/elements/1.1/"
   xmlns:cc="http://creativecommons.org/ns#"
   xmlns:rdf="http://www.w3.org/1999/02/22-rdf-syntax-ns#"
   xmlns:svg="http://www.w3.org/2000/svg"
   xmlns="http://www.w3.org/2000/svg"
   xmlns:xlink="http://www.w3.org/1999/xlink"
   xmlns:sodipodi="http://sodipodi.sourceforge.net/DTD/sodipodi-0.dtd"
   xmlns:inkscape="http://www.inkscape.org/namespaces/inkscape"
   width="744.09448819"
   height="1052.3622047"
   id="svg6252"
   version="1.1"
   inkscape:version="0.47pre4 r22446"
   sodipodi:docname="anyul.svg">
  <defs
     id="defs6254">
    <linearGradient
       inkscape:collect="always"
       id="linearGradient6291">
      <stop
         style="stop-color:#93a7ac;stop-opacity:1;"
         offset="0"
         id="stop6293" />
      <stop
         style="stop-color:#93a7ac;stop-opacity:0;"
         offset="1"
         id="stop6295" />
    </linearGradient>
    <inkscape:perspective
       sodipodi:type="inkscape:persp3d"
       inkscape:vp_x="0 : 526.18109 : 1"
       inkscape:vp_y="0 : 1000 : 0"
       inkscape:vp_z="744.09448 : 526.18109 : 1"
       inkscape:persp3d-origin="372.04724 : 350.78739 : 1"
       id="perspective6260" />
    <inkscape:perspective
       id="perspective6247"
       inkscape:persp3d-origin="0.5 : 0.33333333 : 1"
       inkscape:vp_z="1 : 0.5 : 1"
       inkscape:vp_y="0 : 1000 : 0"
       inkscape:vp_x="0 : 0.5 : 1"
       sodipodi:type="inkscape:persp3d" />
    <linearGradient
       inkscape:collect="always"
       xlink:href="#linearGradient6291"
       id="linearGradient6297"
       x1="121"
       y1="655.36218"
       x2="938"
       y2="206.36218"
       gradientUnits="userSpaceOnUse" />
  </defs>
  <sodipodi:namedview
     id="base"
     pagecolor="#ffffff"
     bordercolor="#666666"
     borderopacity="1.0"
     inkscape:pageopacity="0.0"
     inkscape:pageshadow="2"
     inkscape:zoom="0.5"
     inkscape:cx="240.73848"
     inkscape:cy="840.24916"
     inkscape:document-units="px"
     inkscape:current-layer="layer1"
     showgrid="false"
     inkscape:window-width="1280"
     inkscape:window-height="952"
     inkscape:window-x="0"
     inkscape:window-y="25"
     inkscape:window-maximized="1" />
  <metadata
     id="metadata6257">
    <rdf:RDF>
      <cc:Work
         rdf:about="">
        <dc:format>image/svg+xml</dc:format>
        <dc:type
           rdf:resource="http://purl.org/dc/dcmitype/StillImage" />
        <dc:title></dc:title>
      </cc:Work>
    </rdf:RDF>
  </metadata>
  <g
     inkscape:label="Layer 1"
     inkscape:groupmode="layer"
     id="layer1">
    <g
       id="g7058">
      <path
         sodipodi:nodetypes="ccccsccccccccccccccccccccc"
         id="path6234"
         d="m 293.65603,387.66402 c -22.36917,-4.14823 -40.59223,-6.70787 -60.1642,-15.75103 -10.23794,-19.40154 0.82051,-51.67908 20.94448,-54.71479 16.55106,1.01368 35.64851,7.97369 52.50681,15.44437 4.11816,-5.42192 6.61455,-3.08327 5.0629,-7.62071 -3.99483,-11.682 -22.76087,-23.73861 -21.70848,-49.30163 1.83993,-25.99126 15.76048,-30.36739 25.60889,-43.27877 -8.5328,-39.52543 6.5827,-83.48702 52.0997,-86.86912 27.41504,9.48948 11.23701,43.7989 2.18658,74.49574 1.50768,1.92093 4.64222,2.00419 10.31962,-1.05353 7.62519,-26.21551 2.62152,-63.41387 28.80207,-76.56569 34.38789,7.78942 35.35262,69.7301 19.62734,95.50087 20.0698,11.43996 22.44322,24.67206 23.89762,45.40733 1.50558,11.63381 -9.83811,29.5561 -22.67704,46.22742 0.005,4.87202 -0.94399,6.05787 4.31197,9.1594 16.8386,-5.06129 41.00887,-5.18838 58.21817,-1.49492 13.31709,8.66602 18.6474,40.39354 6.6662,54.47853 -23.96116,8.25707 -37.1025,5.53742 -57.20757,8.27267 -4.36375,4.96232 -6.30925,6.20548 -6.27325,12.82785 4.27407,26.9825 8.95291,54.48377 20.16945,80.55096 2.3098,26.01395 -51.32866,37.05086 -65.14896,24.95623 -8.02633,-19.86745 -0.005,-46.74422 -24.14859,-48.26676 -25.4062,0.23294 -12.97151,18.75229 -22.52757,45.71716 -16.7074,14.43004 -69.01313,-4.22071 -66.17313,-26.47201 4.04766,-27.43766 8.77159,-62.80796 14.79159,-84.5186 4.24119,-12.99349 3.65368,-12.98681 0.8154,-17.13097 z"
         style="fill:#b7bec8;stroke:none;stroke-width:1px;stroke-linecap:butt;stroke-linejoin:miter;stroke-opacity:1" />
      <path
         style="fill:#f9f9f9;stroke:none;stroke-width:0.96589106000000002px;stroke-linecap:butt;stroke-linejoin:miter;stroke-opacity:1;fill-opacity:1"
         d="m 296.5477,385.61678 c -21.38928,-4.04737 -38.81406,-6.54477 -57.52867,-15.36805 -9.78947,-18.92981 0.78457,-47.56541 20.027,-50.52731 13.90962,0.86927 35.25189,10.18096 49.95013,16.68021 2.02506,0.89543 1.87604,19.64887 -9.74341,45.53151 12.64116,-15.45103 15.67994,-39.58463 15.86192,-51.45714 27.17075,7.45815 86.60581,6.63764 109.69044,-1.76594 -19.16123,8.07037 -110.1166,2.30634 -110.71125,-4.21235 -2.44029,-11.77071 -21.76381,-23.16143 -20.75752,-48.1029 1.75932,-25.35932 15.07008,-29.62905 24.48707,-42.22649 -8.15902,-38.56441 6.29434,-81.45712 49.81745,-84.75698 26.21412,9.25874 7.88763,42.73396 -0.76634,72.68444 1.44164,1.87422 11.58171,3.38403 17.01041,0.40066 7.29117,-25.5781 -1.77903,-63.3006 23.25468,-76.13264 30.48036,7.04503 30.99883,61.63288 19.30008,89.28305 -19.91924,-11.06755 -69.32504,-15.02973 -104.82377,-2.96212 47.16284,-10.24511 71.90366,-7.33523 104.29123,6.85792 2.27463,-1.42165 26.49665,20.92434 22.85078,44.3033 1.43963,11.35095 -9.40714,28.83747 -21.68366,45.10345 0.60295,2.45337 -31.80431,15.95785 10.30351,64.29614 -30.10378,-48.61439 -13.83638,-58.6856 -6.85881,-50.65531 16.10097,-4.93824 43.46227,-4.76637 59.9177,-1.16271 12.73374,8.45531 14.25913,34.41141 2.80278,48.15393 -22.91155,8.05631 -35.47722,5.40279 -54.70158,8.07153 -4.1726,4.84168 -5.49844,7.76596 -5.49844,7.76596 -20.87825,-0.35355 -96.3562,2.36424 -133.58987,-6.96032 29.53697,9.92382 89.44518,8.36008 134.31208,10.22088 3.78472,23.60017 8.48054,57.35667 18.06369,80.08188 2.20863,25.38144 -44.08017,36.86429 -57.29506,25.06374 -1.05328,-2.6603 -2.86806,-11.78978 -3.53951,-14.67066 -0.31477,-1.3505 28.44162,0.56774 55.19508,-15.70166 -30.25862,13.80648 -56.1825,12.07931 -56.47747,10.42241 -2.72688,-15.31771 -4.57724,-27.30193 -23.26886,-27.85759 -22.03016,0.7258 -18.73985,9.93125 -20.26054,26.1629 -3.8063,7.31113 -42.11567,0.43312 -60.59047,-15.82598 13.42597,18.01381 54.55358,26.13158 59.59787,20.97475 1.78575,-1.82559 -1.47721,8.4064 -2.43046,11.15106 -15.97552,14.07919 -63.84712,-1.97524 -61.13152,-23.68552 3.87034,-26.77052 8.38734,-61.28084 14.14363,-82.46359 4.0554,-12.67757 3.49363,-12.67106 0.77968,-16.71446 z"
         id="path6271"
         sodipodi:nodetypes="cccscccccccccccccccccccccccccscscccscccc" />
      <path
         transform="translate(0.88760045,6.3060194)"
         d="m 335.37063,271.26172 a 5.8083773,5.8083773 0 1 1 -11.61675,0 5.8083773,5.8083773 0 1 1 11.61675,0 z"
         sodipodi:ry="5.8083773"
         sodipodi:rx="5.8083773"
         sodipodi:cy="271.26172"
         sodipodi:cx="329.56226"
         id="path6273"
         style="fill:#535d6c;fill-opacity:1;stroke:none;stroke-width:1;stroke-opacity:1"
         sodipodi:type="arc" />
      <path
         transform="translate(76.302412,11.106963)"
         sodipodi:type="arc"
         style="fill:#535d6c;fill-opacity:1;stroke:none;stroke-width:1;stroke-opacity:1"
         id="path6275"
         sodipodi:cx="329.56226"
         sodipodi:cy="271.26172"
         sodipodi:rx="5.8083773"
         sodipodi:ry="5.8083773"
         d="m 335.37063,271.26172 a 5.8083773,5.8083773 0 1 1 -11.61675,0 5.8083773,5.8083773 0 1 1 11.61675,0 z" />
      <path
         sodipodi:nodetypes="ccccccccc"
         id="path7050"
         d="m 296.5477,385.61678 c 0.84231,-1.31435 1.62564,-2.99329 2.70505,-3.68364 12.64116,-15.45103 15.67994,-39.58463 15.86192,-51.45714 32.6828,7.13254 97.28497,6.58476 111.9596,-1.5266 0.60295,2.45337 -31.80431,15.95785 10.30351,64.29614 1.01069,1.88965 -0.12419,2.66346 1.16009,4.40744 -4.1726,4.84168 -5.49844,7.76596 -5.49844,7.76596 -20.87825,-0.35355 -96.3562,2.36424 -133.58987,-6.96032 -2.22087,-4.02333 -1.59368,-4.25419 -2.90186,-12.84184 z"
         style="fill:#f6d5ff;stroke:none;stroke-width:0.96589106000000002px;stroke-linecap:butt;stroke-linejoin:miter;stroke-opacity:1;fill-opacity:1" />
      <path
         style="fill:#f6d5ff;fill-opacity:1;stroke:none"
         d="m 359.15558,160.72505 c 7.12224,10.49618 5.58953,25.40984 -3.06444,55.36032 -5.87884,1.14915 -13.70432,1.45003 -25.13639,5.86408 -0.4073,-36.33172 6.4334,-46.06718 28.20083,-61.2244 z"
         id="path7052"
         sodipodi:nodetypes="cccc" />
      <path
         sodipodi:nodetypes="cccc"
         id="path7054"
         d="m 397.31996,220.02157 c 7.29117,-25.5781 2.46361,-44.20872 13.00163,-58.45497 9.62071,17.65163 18.97802,35.46992 7.27927,63.12009 -6.93418,-2.71445 -15.22158,-5.8264 -20.2809,-4.66512 z"
         style="fill:#f6d5ff;fill-opacity:1;stroke:none" />
      <path
         sodipodi:nodetypes="ccsccccsc"
         id="path7056"
         d="m 433.76164,408.6795 c 5.59565,36.97979 15.34154,67.15124 12.4242,74.7733 -30.25862,13.80648 -56.1825,12.07931 -56.47747,10.42241 -2.72688,-15.31771 -4.57724,-27.30193 -23.26886,-27.85759 -22.03016,0.7258 -18.73985,9.93125 -20.26054,26.1629 -3.8063,7.31113 -42.11567,0.43312 -60.59047,-15.82598 -2.77692,-8.5222 3.86845,-48.56784 10.17952,-74.0233 0.33317,-0.80446 0.34262,-5.27919 1.98233,-4.52765 6.72078,3.0804 39.07633,10.54629 136.01129,10.87591 z"
         style="fill:#d7f4d7;stroke:none;stroke-width:0.96589106000000002px;stroke-linecap:butt;stroke-linejoin:miter;stroke-opacity:1;fill-opacity:1" />
    </g>
  </g>
</svg>
